# xmcd
#
# Track frame offsets:
#	150
#	19970
#	40723
#	57714
#	71540
#	88774
#
# Disc length: 1407 seconds
#
# Revision: 0
# Processed by: cddbd v1.5.2PL0 Copyright (c) Steve Scherf et al.
# Submitted via: EasyCDDAExtractor 12.0.4.1
#
DISCID=4f057d06
DTITLE=mint - Girl talk
DYEAR=2009
DGENRE=Pop
TTITLE0=ที่จริงเธอรู้
TTITLE1=รักต้องการรัก
TTITLE2=แค่เคยรักกัน
TTITLE3=เว้นระยะ
TTITLE4=แกว่ง
TTITLE5=เหตุผลง่าย
EXTD=
EXTT0=
EXTT1=
EXTT2=
EXTT3=
EXTT4=
EXTT5=
PLAYORDER=
